<?xml version="1.0" standalone="no"?><!DOCTYPE svg PUBLIC "-//W3C//DTD SVG 1.1//EN" "http://www.w3.org/Graphics/SVG/1.1/DTD/svg11.dtd"><svg t="1629035241674" class="icon" viewBox="0 0 1024 1024" version="1.1" xmlns="http://www.w3.org/2000/svg" p-id="28703" xmlns:xlink="http://www.w3.org/1999/xlink" width="200" height="200"><defs><style type="text/css"></style></defs><path d="M940.220387 311.358307 74.928015 311.358307c-16.622586 0-30.099529 13.475919-30.099529 30.098505l0 297.960159c0 16.622586 13.475919 30.098505 30.099529 30.098505l865.291348 0c16.623609 0 30.098505-13.475919 30.098505-30.098505L970.317868 341.456812C970.318892 324.834226 956.843996 311.358307 940.220387 311.358307zM942.478823 618.350167c0 11.30344-9.162684 20.466124-20.466124 20.466124l-828.878021 0c-11.30344 0-20.466124-9.162684-20.466124-20.466124l0-255.82655c0-11.30344 9.162684-20.466124 20.466124-20.466124l828.878021 0c11.30344 0 20.466124 9.162684 20.466124 20.466124L942.478823 618.350167z" p-id="28704" fill="#2c2c2c"></path><path d="M152.587746 449.987644c0-0.602727 0-1.355881 0-2.25946s0-1.755993 0-2.560312c0-1.001817 0.099261-2.004657 0.300852-3.012613 0.197498-1.001817 0.400113-2.004657 0.602727-3.012613 1.00284-7.028067 3.059686-13.707187 6.175653-20.033265 3.111874-6.326079 7.380084-12.398378 12.803607-18.226107 5.219885-5.822612 11.946077-10.341532 20.184715-13.556761 8.232498-3.210112 17.873066-5.121648 28.92068-5.724375 8.835226 0 17.119913 1.205455 24.854061 3.615341 7.729032 2.409886 14.911618 5.92699 21.539572 10.544147 6.627954 4.819772 11.598152 10.797927 14.911618 17.924231 3.313465 7.131421 4.970198 15.416108 4.970198 24.854061 0 6.627954-0.353041 12.253068-1.054005 16.870226-0.706081 4.622274-1.859347 8.335852-3.464915 11.146874-1.407046 2.814092-3.266393 5.4225-5.572926 7.832386-2.310625 2.409886-4.871961 4.721535-7.68196 6.928806-0.202615 0.202615-0.451278 0.405229-0.753153 0.602727-0.300852 0.202615-0.654916 0.405229-1.055029 0.601704-0.202615 0.202615-0.451278 0.405229-0.753153 0.602727-0.300852 0.202615-0.653893 0.405229-1.054005 0.602727 5.4225 2.009773 10.138918 4.471848 14.158465 7.381108 4.015454 2.913353 7.229658 6.279007 9.640568 10.091846 2.409886 3.816932 4.316306 7.634888 5.723352 11.447726 1.402953 3.817955 2.409886 7.734148 3.012613 11.748578 0 0.405229 0 0.805342 0 1.205455 0 0.405229 0.099261 0.804319 0.300852 1.205455 0 0.405229 0 0.804319 0 1.205455 0 0.405229 0 0.804319 0 1.205455 0 0.405229 0 0.804319 0 1.204431 0 0.405229 0.099261 0.706081 0.300852 0.904603 0 0.405229 0 0.75213 0 1.054005 0 0.300852 0 0.654916 0 1.054005 0 0.405229 0 0.804319 0 1.205455 0 0.405229 0 0.804319 0 1.205455 0 0.201591 0 0.503467 0 0.903579 0 0.202615 0.047072 0.405229 0.150426 0.602727 0.098237 0.201591 0.150426 0.405229 0.150426 0.602727 0 8.636704-1.407046 16.470113-4.218068 23.49818-2.814092 7.03216-7.03216 13.359262-12.653181 18.97926-5.625114 5.625114-11.800767 9.78997-18.526959 12.501732-6.731308 2.710738-14.112416 4.067642-22.1423 4.067642-0.202615 0-0.503467 0-0.903579 0-0.202615 0-0.405229 0-0.602727 0-0.202615 0-0.405229 0-0.602727 0-0.202615 0-0.503467 0-0.903579 0-0.202615 0-0.405229 0-0.602727 0-0.202615 0-0.405229 0-0.602727 0l-45.188178 0 0-28.317952 37.95852 0c5.220908 0.405229 10.191106-0.047072 14.912641-1.355881 4.716418-1.303692 9.084912-3.2623 13.104459-5.873778 4.015454-2.608407 7.079232-6.025227 9.188266-10.243295 2.109034-4.217045 3.163039-9.338692 3.163039-15.363919 0-6.42534-1.106194-11.9471-3.313465-16.569374-2.212388-4.618181-5.4225-8.232498-9.640568-10.844999-4.218068-2.811022-9.03784-4.866844-14.46034-6.175653-5.4225-1.303692-11.348466-1.958608-17.773805-1.958608l-33.138748-0.602727 0-25.908066 26.209942 0c6.627954 0.405229 12.351306-0.047072 17.171078-1.355881 4.819772-1.303692 8.736988-3.2623 11.748578-5.874801 3.012613-2.607384 5.4225-5.319146 7.229658-8.134261 1.807159-2.809999 3.012613-5.822612 3.615341-9.03784 0-0.197498 0-0.400113 0-0.602727 0-0.197498 0.099261-0.49835 0.300852-0.903579 0-0.197498 0-0.452301 0-0.753153s0-0.550539 0-0.753153c0-0.197498 0-0.400113 0-0.602727 0-0.197498 0.099261-0.49835 0.300852-0.903579 0-0.197498 0-0.452301 0-0.753153s0-0.550539 0-0.753153c0-5.220908-0.856507-9.988492-2.560312-14.309914-1.708921-4.316306-4.269233-8.082072-7.68196-11.2973-3.215228-3.412726-7.182586-5.921873-11.899004-7.531534-4.721535-1.605567-9.993608-2.409886-15.816221-2.409886-6.430456 0-12.003382 0.903579-16.7198 2.711761-4.721535 1.807159-8.487302 4.51892-11.2973 8.133238-2.814092 3.615341-5.022387 7.433296-6.627954 11.447726-1.609661 4.02057-2.612501 8.134261-3.012613 12.351306-0.202615 0.602727-0.300852 1.158383-0.300852 1.656733 0 0.503467 0 0.955768 0 1.355881 0 0.405229 0 0.856507 0 1.355881 0 0.503467 0 0.955768 0 1.355881l0 148.820444-31.029714 0L152.583652 449.987644z" p-id="28705" fill="#2c2c2c"></path><path d="M354.124831 385.820206l0 137.674593c0 7.03216 0.701988 13.359262 2.109034 18.97926 1.402953 5.625114 3.412726 10.745738 6.025227 15.363919 2.809999 4.419659 6.825452 7.832386 12.050454 10.243295 5.219885 2.409886 11.748578 3.614317 19.581987 3.614317 0.197498 0 0.400113 0 0.602727 0 0.197498 0 0.400113 0 0.601704 0 0.197498 0 0.348947 0 0.452301 0 0.099261 0 0.249687 0 0.451278 0 0.197498-0.196475 0.400113-0.300852 0.602727-0.300852 0.197498 0 0.400113 0 0.602727 0 0.197498 0 0.400113 0 0.602727 0 0.197498 0 0.347924 0 0.451278 0 0.099261 0 0.249687 0 0.452301 0 0.197498 0 0.400113 0 0.601704 0l23.799032-0.602727 0 26.208918-33.137725 0c-1.808182 0-3.765767-0.047072-5.874801-0.150426-2.109034-0.099261-4.269233-0.248663-6.477528-0.451278-2.212388-0.400113-4.471848-0.903579-6.77838-1.506307-2.310625-0.602727-4.669346-1.303692-7.079232-2.109034-4.819772-1.808182-9.390881-4.26514-13.707187-7.381108-4.321422-3.111874-8.486278-6.877641-12.501732-11.2973-3.816932-4.414543-6.731308-9.78997-8.736988-16.117073-2.009773-6.327102-3.012613-13.707187-3.012613-22.1423L325.805856 385.820206 354.124831 385.820206z" p-id="28706" fill="#2c2c2c"></path><path d="M438.171016 445.468724c5.219885-12.652158 13.052271-23.596418 23.49818-32.836873 10.440793-9.437953 21.389146-16.7198 32.836873-21.841447 11.447726-5.120624 23.393803-8.082072 35.849486-8.887414 0.400113 0 0.701988 0 0.903579 0 0.197498 0 0.49835-0.099261 0.903579-0.300852 0.197498 0 0.452301 0 0.753153 0 0.301875 0 0.550539 0 0.753153 0 0.400113 0 0.701988 0 0.903579 0 0.197498 0 0.49835 0 0.904603 0 0.196475 0 0.451278 0 0.75213 0 0.301875 0 0.550539 0 0.753153 0 2.607384 0 5.27105 0.104377 7.983835 0.300852 2.710738 0.202615 5.469572 0.503467 8.284687 0.903579 2.809999 0.405229 5.672186 0.903579 8.585539 1.506307 2.90926 0.601704 5.874801 1.308809 8.887414 2.109034 9.438976 2.815115 18.475793 7.03216 27.113521 12.653181 8.632611 5.625114 16.968463 12.55392 25.004487 20.786419 8.030907 8.237615 14.159488 18.277272 18.376533 30.125111 4.217045 11.852956 6.627954 25.507954 7.229658 40.971134 0 14.262842-2.409886 27.715225-7.229658 40.368406-4.819772 12.652158-11.952216 24.505114-21.389146 35.547611-9.44307 11.047614-20.635993 19.23304-33.589003 24.552186-12.954033 5.323239-27.768437 7.983835-44.436048 7.983835-15.467273 0-29.777187-2.311649-42.928718-6.928806-13.155624-4.618181-25.154913-11.545964-35.999912-20.786419-10.844999-9.437953-18.97926-21.087271-24.40176-34.944883-5.4225-13.857613-8.134261-29.92352-8.134261-48.200792L430.339654 487.946165C430.33863 472.28037 432.946015 458.121905 438.171016 445.468724zM461.066469 489.753323c0 0.405229 0 0.804319 0 1.204431 0 0.202615 0 0.503467 0 0.903579 0 0.202615 0 0.405229 0 0.602727 0 0.202615 0 0.405229 0 0.602727-0.202615 10.844999 1.506307 20.936845 5.121648 30.275537 3.615341 9.338692 9.136078 18.126846 16.568351 26.360368 7.229658 8.035 15.561417 14.059204 25.004487 18.074657 9.437953 4.02057 19.981077 6.02625 31.632441 6.02625 2.207271 0 4.565992-0.099261 7.079232-0.301875 2.508123-0.197498 5.069459-0.49835 7.68196-0.903579 2.809999-0.401136 5.672186-0.951675 8.586562-1.656733 2.90926-0.701988 5.873778-1.656733 8.887414-2.862187 5.821589-2.207271 11.344373-5.220908 16.568351-9.03784 5.220908-3.812839 10.243295-8.534374 15.063067-14.159488 4.819772-5.821589 8.435113-13.000082 10.846022-21.539572 2.408863-8.53335 3.614317-18.526959 3.614317-29.974685 0-10.642384-1.557472-20.88568-4.669346-30.727839-3.115967-9.838066-7.883551-19.176758-14.308891-28.0171-6.227842-8.835226-14.512529-15.514345-24.853038-20.033265-10.346649-4.51892-22.646789-6.77838-36.903491-6.77838-11.852956 0-22.444175 2.109034-31.782867 6.327102s-17.322527 10.544147-23.949458 18.97926c-6.830569 8.435113-11.900028 17.274432-15.213493 26.510794-3.313465 9.239432-4.970198 18.879999-4.970198 28.92068L461.069539 487.946165C461.066469 488.750483 461.066469 489.353211 461.066469 489.753323z" p-id="28707" fill="#2c2c2c"></path><path d="M671.041738 452.547956c3.812839-11.146874 9.437953-20.833491 16.870226-29.071106 7.629771-8.232498 15.561417-15.260565 23.799032-21.087271 8.232498-5.822612 16.870226-10.341532 25.907043-13.556761 1.605567-0.601704 3.2623-1.153266 4.970198-1.656733 1.704828-0.49835 3.464915-1.054005 5.272074-1.656733 1.604544-0.400113 3.2623-0.800225 4.970198-1.204431 1.703805-0.400113 3.360538-0.701988 4.970198-0.903579 3.412726-0.602727 6.674003-1.054005 9.790994-1.355881 3.110851-0.300852 6.175653-0.452301 9.188266-0.452301 8.233522 0 16.164145 0.805342 23.800056 2.409886 7.629771 1.609661 14.859429 3.916193 21.689998 6.928806 6.825452 3.012613 13.555737 6.928806 20.183691 11.748578 6.628978 4.819772 13.152555 10.444886 19.581987 16.870226l-18.97926 20.786419c-0.804319-0.400113-1.557472-0.903579-2.25946-1.506307-0.705058-0.602727-1.459235-1.303692-2.25946-2.109034-0.405229-0.400113-0.804319-0.800225-1.204431-1.205455-0.405229-0.400113-0.805342-0.800225-1.205455-1.205455-0.602727-0.400113-1.106194-0.800225-1.50733-1.204431-0.405229-0.400113-0.804319-0.800225-1.204431-1.205455-3.615341-3.012613-7.531534-5.874801-11.748578-8.585539-4.218068-2.711761-8.736988-5.371334-13.556761-7.983835-4.819772-2.409886-9.842159-4.264117-15.063067-5.572926-5.223978-1.303692-10.647501-1.958608-16.267499-1.958608-12.253068 0-23.045879 1.76111-32.384571 5.272074-9.338692 3.517103-17.223267 8.788154-23.647583 15.816221-6.227842 6.829546-11.2973 14.112416-15.213493 21.840424-3.916193 7.734148-6.580882 15.816221-7.983835 24.251334-0.201591 1.407046-0.451278 2.762927-0.75213 4.067642-0.301875 1.308809-0.452301 2.664689-0.452301 4.066619-0.201591 1.407046-0.300852 2.762927-0.300852 4.067642 0 1.308809 0 2.560312 0 3.765767 0 10.044774 1.656733 19.732413 4.970198 29.071106 3.313465 9.338692 8.284687 18.226107 14.911618 26.66122s15.010879 14.911618 25.154913 19.430538c10.138918 4.51892 22.038946 7.080256 35.69906 7.682983 0.197498 0 0.348947 0 0.451278 0 0.099261 0 0.249687 0 0.452301 0 0.196475 0 0.400113 0 0.602727 0 0.196475 0 0.400113 0 0.601704 0 0.401136 0 0.701988 0 0.904603 0 0.197498 0 0.347924 0 0.451278 0 0.099261 0 0.249687 0 0.451278 0 9.03784 0.201591 17.270339-1.00284 24.703635-3.615341 7.42818-2.607384 13.956873-6.627954 19.581987-12.04943 5.821589-5.220908 10.694573-10.793834 14.610766-16.7198 3.916193-5.921873 6.974855-12.097526 9.188266-18.526959 0.602727-1.605567 1.153266-3.163039 1.656733-4.669346 0.49835-1.506307 0.852414-2.960425 1.054005-4.368494 0.197498-0.800225 0.348947-1.553379 0.451278-2.25946 0.099261-0.700965 0.150426-1.454118 0.150426-2.25946 0.197498-0.602727 0.348947-1.252527 0.451278-1.958608 0.099261-0.700965 0.150426-1.454118 0.150426-2.25946l-73.506131-0.601704 0-28.619828 104.233969 0 0 26.208918c-1.205455 15.867386-4.720511 29.77821-10.544147 41.723264-5.826705 11.952216-13.857613 22.143323-24.100908 30.578436-10.444886 8.43409-21.642926 14.71412-33.590026 18.827811-11.951193 4.114714-24.753777 6.175653-38.409798 6.175653-16.070001 0-30.727839-2.456958-43.982724-7.381108-13.254885-4.919033-25.004487-12.502755-35.246759-22.745027-10.242272-10.04068-18.074657-21.638833-23.49818-34.795481-5.4225-13.151531-8.335852-27.66406-8.735965-43.531446l0-0.602727C665.317363 476.299917 667.223782 463.694831 671.041738 452.547956z" p-id="28708" fill="#2c2c2c"></path></svg>