<?xml version="1.0" standalone="no"?><!DOCTYPE svg PUBLIC "-//W3C//DTD SVG 1.1//EN" "http://www.w3.org/Graphics/SVG/1.1/DTD/svg11.dtd"><svg t="1628954942329" class="icon" viewBox="0 0 1024 1024" version="1.1" xmlns="http://www.w3.org/2000/svg" p-id="7834" xmlns:xlink="http://www.w3.org/1999/xlink" width="200" height="200"><defs><style type="text/css"></style></defs><path d="M947.2 96H76.8a44.8 44.8 0 0 0-44.8 44.8v742.4a44.8 44.8 0 0 0 44.8 44.8h870.4a44.8 44.8 0 0 0 44.8-44.8V140.8a44.8 44.8 0 0 0-44.8-44.8zM386.6752 652.9024a38.4 38.4 0 1 1-57.984 50.3552L162.56 512l166.1312-191.2576c19.3664-22.6944 59.456-17.2672 68.5568 20.4032a26.3808 26.3808 0 0 1-4.288 21.5936c-2.0992 2.9056-4.0064 5.7856-6.272 8.3584L264.3072 512zM609.28 303.4368l-117.12 437.0048a38.4 38.4 0 0 1-75.52-9.9072 38.016 38.016 0 0 1 1.28-9.9712L535.04 283.5584a38.4 38.4 0 1 1 74.24 19.8784z m86.4 399.8208a38.4 38.4 0 1 1-57.984-50.3552L760.064 512l-122.368-140.9024a38.4 38.4 0 0 1 57.984-50.3552L861.7856 512z" p-id="7835" fill="#8a8a8a"></path></svg>